# xmcd
#
# Track frame offsets: 
#        150
#        6358
#        24474
#        36405
#        48052
#        63389
#        79699
#        91490
#        100587
#        113151
#        125993
#        140099
#        154238
#
# Disc length: 2215 seconds
#
# Revision: 0
# Processed by: cddbd v1.5.2PL0 Copyright (c) Steve Scherf et al.
# Submitted via: ExactAudioCopy v1.0b1
#
DISCID=ac08a50d
DTITLE=The Dirt Daubers - Wild Moon
DYEAR=2013
DGENRE=Bluegrass
TTITLE0=French Harp Hustle
TTITLE1=Apple And Oranges
TTITLE2=Wild Moon
TTITLE3=Drive
TTITLE4=No Rest For The Wicked
TTITLE5=No More My Love
TTITLE6=Angel Crown
TTITLE7=Let It Fly
TTITLE8=You Know I Love You
TTITLE9=Hidey Hole
TTITLE10=Don't Thrill Me No More
TTITLE11=River Song
TTITLE12=God Fearing People
EXTD=
EXTT0=
EXTT1=
EXTT2=
EXTT3=
EXTT4=
EXTT5=
EXTT6=
EXTT7=
EXTT8=
EXTT9=
EXTT10=
EXTT11=
EXTT12=
PLAYORDER=
